<svg xmlns="http://www.w3.org/2000/svg" xmlns:xlink="http://www.w3.org/1999/xlink" contentStyleType="text/css" height="623px" preserveAspectRatio="none" style="width:1246px;height:623px;background:#FFFFFF;" version="1.1" viewBox="0 0 1246 623" width="1246px" zoomAndPan="magnify"><defs/><g><rect fill="none" height="46.2656" style="stroke:#000000;stroke-width:1.5;" width="703.0625" x="537.397" y="360.4922"/><rect fill="none" height="75.3984" style="stroke:#000000;stroke-width:1.5;" width="542.0313" x="537.397" y="420.7578"/><line style="stroke:#181818;stroke-width:0.5;stroke-dasharray:5.0,5.0;" x1="36" x2="36" y1="81.2969" y2="542.2891"/><line style="stroke:#181818;stroke-width:0.5;stroke-dasharray:5.0,5.0;" x1="104.8271" x2="104.8271" y1="81.2969" y2="542.2891"/><line style="stroke:#181818;stroke-width:0.5;stroke-dasharray:5.0,5.0;" x1="301.396" x2="301.396" y1="81.2969" y2="542.2891"/><line style="stroke:#181818;stroke-width:0.5;stroke-dasharray:5.0,5.0;" x1="611.397" x2="611.397" y1="81.2969" y2="542.2891"/><line style="stroke:#181818;stroke-width:0.5;stroke-dasharray:5.0,5.0;" x1="754.9741" x2="754.9741" y1="81.2969" y2="542.2891"/><line style="stroke:#181818;stroke-width:0.5;stroke-dasharray:5.0,5.0;" x1="876.1929" x2="876.1929" y1="81.2969" y2="542.2891"/><line style="stroke:#181818;stroke-width:0.5;stroke-dasharray:5.0,5.0;" x1="998.2339" x2="998.2339" y1="81.2969" y2="542.2891"/><line style="stroke:#181818;stroke-width:0.5;stroke-dasharray:5.0,5.0;" x1="1154.4282" x2="1154.4282" y1="81.2969" y2="542.2891"/><text fill="#000000" font-family="sans-serif" font-size="14" lengthAdjust="spacing" textLength="56.8271" x="5" y="77.9951">Sponsor</text><ellipse cx="36.4136" cy="13.5" fill="#E2E2F0" rx="8" ry="8" style="stroke:#181818;stroke-width:0.5;"/><path d="M36.4136,21.5 L36.4136,48.5 M23.4136,29.5 L49.4136,29.5 M36.4136,48.5 L23.4136,63.5 M36.4136,48.5 L49.4136,63.5 " fill="none" style="stroke:#181818;stroke-width:0.5;"/><text fill="#000000" font-family="sans-serif" font-size="14" lengthAdjust="spacing" textLength="56.8271" x="5" y="554.2842">Sponsor</text><ellipse cx="36.4136" cy="566.0859" fill="#E2E2F0" rx="8" ry="8" style="stroke:#181818;stroke-width:0.5;"/><path d="M36.4136,574.0859 L36.4136,601.0859 M23.4136,582.0859 L49.4136,582.0859 M36.4136,601.0859 L23.4136,616.0859 M36.4136,601.0859 L49.4136,616.0859 " fill="none" style="stroke:#181818;stroke-width:0.5;"/><text fill="#000000" font-family="sans-serif" font-size="14" lengthAdjust="spacing" textLength="49.2803" x="77.8271" y="77.9951">Hacker</text><ellipse cx="105.4673" cy="13.5" fill="#E2E2F0" rx="8" ry="8" style="stroke:#181818;stroke-width:0.5;"/><path d="M105.4673,21.5 L105.4673,48.5 M92.4673,29.5 L118.4673,29.5 M105.4673,48.5 L92.4673,63.5 M105.4673,48.5 L118.4673,63.5 " fill="none" style="stroke:#181818;stroke-width:0.5;"/><text fill="#000000" font-family="sans-serif" font-size="14" lengthAdjust="spacing" textLength="49.2803" x="77.8271" y="554.2842">Hacker</text><ellipse cx="105.4673" cy="566.0859" fill="#E2E2F0" rx="8" ry="8" style="stroke:#181818;stroke-width:0.5;"/><path d="M105.4673,574.0859 L105.4673,601.0859 M92.4673,582.0859 L118.4673,582.0859 M105.4673,601.0859 L92.4673,616.0859 M105.4673,601.0859 L118.4673,616.0859 " fill="none" style="stroke:#181818;stroke-width:0.5;"/><rect fill="#E2E2F0" height="30.2969" rx="2.5" ry="2.5" style="stroke:#181818;stroke-width:0.5;" width="154.5537" x="224.396" y="50"/><text fill="#000000" font-family="sans-serif" font-size="14" lengthAdjust="spacing" textLength="140.5537" x="231.396" y="69.9951">BugBuster Frontend</text><rect fill="#E2E2F0" height="30.2969" rx="2.5" ry="2.5" style="stroke:#181818;stroke-width:0.5;" width="154.5537" x="224.396" y="541.2891"/><text fill="#000000" font-family="sans-serif" font-size="14" lengthAdjust="spacing" textLength="140.5537" x="231.396" y="561.2842">BugBuster Frontend</text><rect fill="#E2E2F0" height="30.2969" rx="2.5" ry="2.5" style="stroke:#181818;stroke-width:0.5;" width="128.5771" x="547.397" y="50"/><text fill="#000000" font-family="sans-serif" font-size="14" lengthAdjust="spacing" textLength="114.5771" x="554.397" y="69.9951">BugBuster Dapp</text><rect fill="#E2E2F0" height="30.2969" rx="2.5" ry="2.5" style="stroke:#181818;stroke-width:0.5;" width="128.5771" x="547.397" y="541.2891"/><text fill="#000000" font-family="sans-serif" font-size="14" lengthAdjust="spacing" textLength="114.5771" x="554.397" y="561.2842">BugBuster Dapp</text><text fill="#000000" font-family="sans-serif" font-size="14" lengthAdjust="spacing" textLength="133.2188" x="685.9741" y="77.9951">BugBusterContract</text><path d="M737.5835,29 C737.5835,19 755.5835,19 755.5835,19 C755.5835,19 773.5835,19 773.5835,29 L773.5835,55 C773.5835,65 755.5835,65 755.5835,65 C755.5835,65 737.5835,65 737.5835,55 L737.5835,29 " fill="#E2E2F0" style="stroke:#181818;stroke-width:1.5;"/><path d="M737.5835,29 C737.5835,39 755.5835,39 755.5835,39 C755.5835,39 773.5835,39 773.5835,29 " fill="none" style="stroke:#181818;stroke-width:1.5;"/><text fill="#000000" font-family="sans-serif" font-size="14" lengthAdjust="spacing" textLength="133.2188" x="685.9741" y="554.2842">BugBusterContract</text><path d="M737.5835,567.5859 C737.5835,557.5859 755.5835,557.5859 755.5835,557.5859 C755.5835,557.5859 773.5835,557.5859 773.5835,567.5859 L773.5835,593.5859 C773.5835,603.5859 755.5835,603.5859 755.5835,603.5859 C755.5835,603.5859 737.5835,603.5859 737.5835,593.5859 L737.5835,567.5859 " fill="#E2E2F0" style="stroke:#181818;stroke-width:1.5;"/><path d="M737.5835,567.5859 C737.5835,577.5859 755.5835,577.5859 755.5835,577.5859 C755.5835,577.5859 773.5835,577.5859 773.5835,567.5859 " fill="none" style="stroke:#181818;stroke-width:1.5;"/><text fill="#000000" font-family="sans-serif" font-size="14" lengthAdjust="spacing" textLength="77.041" x="835.1929" y="77.9951">AppBounty</text><path d="M858.7134,29 C858.7134,19 876.7134,19 876.7134,19 C876.7134,19 894.7134,19 894.7134,29 L894.7134,55 C894.7134,65 876.7134,65 876.7134,65 C876.7134,65 858.7134,65 858.7134,55 L858.7134,29 " fill="#E2E2F0" style="stroke:#181818;stroke-width:1.5;"/><path d="M858.7134,29 C858.7134,39 876.7134,39 876.7134,39 C876.7134,39 894.7134,39 894.7134,29 " fill="none" style="stroke:#181818;stroke-width:1.5;"/><text fill="#000000" font-family="sans-serif" font-size="14" lengthAdjust="spacing" textLength="77.041" x="835.1929" y="554.2842">AppBounty</text><path d="M858.7134,567.5859 C858.7134,557.5859 876.7134,557.5859 876.7134,557.5859 C876.7134,557.5859 894.7134,557.5859 894.7134,567.5859 L894.7134,593.5859 C894.7134,603.5859 876.7134,603.5859 876.7134,603.5859 C876.7134,603.5859 858.7134,603.5859 858.7134,593.5859 L858.7134,567.5859 " fill="#E2E2F0" style="stroke:#181818;stroke-width:1.5;"/><path d="M858.7134,567.5859 C858.7134,577.5859 876.7134,577.5859 876.7134,577.5859 C876.7134,577.5859 894.7134,577.5859 894.7134,567.5859 " fill="none" style="stroke:#181818;stroke-width:1.5;"/><text fill="#000000" font-family="sans-serif" font-size="14" lengthAdjust="spacing" textLength="135.1943" x="928.2339" y="77.9951">RL Bounty Tar Files</text><path d="M980.8311,29 C980.8311,19 998.8311,19 998.8311,19 C998.8311,19 1016.8311,19 1016.8311,29 L1016.8311,55 C1016.8311,65 998.8311,65 998.8311,65 C998.8311,65 980.8311,65 980.8311,55 L980.8311,29 " fill="#E2E2F0" style="stroke:#181818;stroke-width:1.5;"/><path d="M980.8311,29 C980.8311,39 998.8311,39 998.8311,39 C998.8311,39 1016.8311,39 1016.8311,29 " fill="none" style="stroke:#181818;stroke-width:1.5;"/><text fill="#000000" font-family="sans-serif" font-size="14" lengthAdjust="spacing" textLength="135.1943" x="928.2339" y="554.2842">RL Bounty Tar Files</text><path d="M980.8311,567.5859 C980.8311,557.5859 998.8311,557.5859 998.8311,557.5859 C998.8311,557.5859 1016.8311,557.5859 1016.8311,567.5859 L1016.8311,593.5859 C1016.8311,603.5859 998.8311,603.5859 998.8311,603.5859 C998.8311,603.5859 980.8311,603.5859 980.8311,593.5859 L980.8311,567.5859 " fill="#E2E2F0" style="stroke:#181818;stroke-width:1.5;"/><path d="M980.8311,567.5859 C980.8311,577.5859 998.8311,577.5859 998.8311,577.5859 C998.8311,577.5859 1016.8311,577.5859 1016.8311,567.5859 " fill="none" style="stroke:#181818;stroke-width:1.5;"/><text fill="#000000" font-family="sans-serif" font-size="14" lengthAdjust="spacing" textLength="145.0313" x="1079.4282" y="77.9951">Bug Bounty Tar Files</text><path d="M1136.9438,29 C1136.9438,19 1154.9438,19 1154.9438,19 C1154.9438,19 1172.9438,19 1172.9438,29 L1172.9438,55 C1172.9438,65 1154.9438,65 1154.9438,65 C1154.9438,65 1136.9438,65 1136.9438,55 L1136.9438,29 " fill="#E2E2F0" style="stroke:#181818;stroke-width:1.5;"/><path d="M1136.9438,29 C1136.9438,39 1154.9438,39 1154.9438,39 C1154.9438,39 1172.9438,39 1172.9438,29 " fill="none" style="stroke:#181818;stroke-width:1.5;"/><text fill="#000000" font-family="sans-serif" font-size="14" lengthAdjust="spacing" textLength="145.0313" x="1079.4282" y="554.2842">Bug Bounty Tar Files</text><path d="M1136.9438,567.5859 C1136.9438,557.5859 1154.9438,557.5859 1154.9438,557.5859 C1154.9438,557.5859 1172.9438,557.5859 1172.9438,567.5859 L1172.9438,593.5859 C1172.9438,603.5859 1154.9438,603.5859 1154.9438,603.5859 C1154.9438,603.5859 1136.9438,603.5859 1136.9438,593.5859 L1136.9438,567.5859 " fill="#E2E2F0" style="stroke:#181818;stroke-width:1.5;"/><path d="M1136.9438,567.5859 C1136.9438,577.5859 1154.9438,577.5859 1154.9438,577.5859 C1154.9438,577.5859 1172.9438,577.5859 1172.9438,567.5859 " fill="none" style="stroke:#181818;stroke-width:1.5;"/><polygon fill="#181818" points="289.6729,108.4297,299.6729,112.4297,289.6729,116.4297,293.6729,112.4297" style="stroke:#181818;stroke-width:1.0;"/><line style="stroke:#181818;stroke-width:1.0;" x1="36.4136" x2="295.6729" y1="112.4297" y2="112.4297"/><text fill="#000000" font-family="sans-serif" font-size="13" lengthAdjust="spacing" textLength="186.6973" x="43.4136" y="107.3638">Add Sponsorship (RL or Bug)</text><polygon fill="#181818" points="599.6855,137.5625,609.6855,141.5625,599.6855,145.5625,603.6855,141.5625" style="stroke:#181818;stroke-width:1.0;"/><line style="stroke:#181818;stroke-width:1.0;" x1="301.6729" x2="605.6855" y1="141.5625" y2="141.5625"/><text fill="#000000" font-family="sans-serif" font-size="13" lengthAdjust="spacing" textLength="141.9146" x="308.6729" y="136.4966">Send AddSponsorship</text><polygon fill="#181818" points="743.5835,166.6953,753.5835,170.6953,743.5835,174.6953,747.5835,170.6953" style="stroke:#181818;stroke-width:1.0;"/><line style="stroke:#181818;stroke-width:1.0;" x1="611.6855" x2="749.5835" y1="170.6953" y2="170.6953"/><text fill="#000000" font-family="sans-serif" font-size="13" lengthAdjust="spacing" textLength="115.1846" x="618.6855" y="165.6294">AddSponsorship()</text><polygon fill="#181818" points="289.6729,195.8281,299.6729,199.8281,289.6729,203.8281,293.6729,199.8281" style="stroke:#181818;stroke-width:1.0;"/><line style="stroke:#181818;stroke-width:1.0;" x1="105.4673" x2="295.6729" y1="199.8281" y2="199.8281"/><text fill="#000000" font-family="sans-serif" font-size="13" lengthAdjust="spacing" textLength="110.0303" x="112.4673" y="194.7622">Explore Bounties</text><polygon fill="#181818" points="599.6855,224.9609,609.6855,228.9609,599.6855,232.9609,603.6855,228.9609" style="stroke:#181818;stroke-width:1.0;"/><line style="stroke:#181818;stroke-width:1.0;" x1="301.6729" x2="605.6855" y1="228.9609" y2="228.9609"/><text fill="#000000" font-family="sans-serif" font-size="13" lengthAdjust="spacing" textLength="238.1831" x="308.6729" y="223.895">Fetch Available Bounties (Bug or RL)</text><polygon fill="#181818" points="864.7134,254.0938,874.7134,258.0938,864.7134,262.0938,868.7134,258.0938" style="stroke:#181818;stroke-width:1.0;"/><line style="stroke:#181818;stroke-width:1.0;" x1="611.6855" x2="870.7134" y1="258.0938" y2="258.0938"/><text fill="#000000" font-family="sans-serif" font-size="13" lengthAdjust="spacing" textLength="100.4707" x="618.6855" y="253.0278">Query Bounties</text><polygon fill="#181818" points="289.6729,283.2266,299.6729,287.2266,289.6729,291.2266,293.6729,287.2266" style="stroke:#181818;stroke-width:1.0;"/><line style="stroke:#181818;stroke-width:1.0;" x1="105.4673" x2="295.6729" y1="287.2266" y2="287.2266"/><text fill="#000000" font-family="sans-serif" font-size="13" lengthAdjust="spacing" textLength="172.2056" x="112.4673" y="282.1606">Submit Exploit (Bug or RL)</text><polygon fill="#181818" points="599.6855,312.3594,609.6855,316.3594,599.6855,320.3594,603.6855,316.3594" style="stroke:#181818;stroke-width:1.0;"/><line style="stroke:#181818;stroke-width:1.0;" x1="301.6729" x2="605.6855" y1="316.3594" y2="316.3594"/><text fill="#000000" font-family="sans-serif" font-size="13" lengthAdjust="spacing" textLength="286.0127" x="308.6729" y="311.2935">SendExploit (RLModelBounty or BugBounty)</text><polygon fill="#181818" points="743.5835,341.4922,753.5835,345.4922,743.5835,349.4922,747.5835,345.4922" style="stroke:#181818;stroke-width:1.0;"/><line style="stroke:#181818;stroke-width:1.0;" x1="611.6855" x2="749.5835" y1="345.4922" y2="345.4922"/><text fill="#000000" font-family="sans-serif" font-size="13" lengthAdjust="spacing" textLength="87.3184" x="618.6855" y="340.4263">SendExploit()</text><path d="M537.397,360.4922 L601.8398,360.4922 L601.8398,367.625 L591.8398,377.625 L537.397,377.625 L537.397,360.4922 " fill="#EEEEEE" style="stroke:#000000;stroke-width:1.5;"/><rect fill="none" height="46.2656" style="stroke:#000000;stroke-width:1.5;" width="703.0625" x="537.397" y="360.4922"/><text fill="#000000" font-family="sans-serif" font-size="13" font-weight="bold" lengthAdjust="spacing" textLength="19.4429" x="552.397" y="373.5591">alt</text><text fill="#000000" font-family="sans-serif" font-size="11" font-weight="bold" lengthAdjust="spacing" textLength="78.1763" x="616.8398" y="372.7026">[BugBounty]</text><polygon fill="#181818" points="1142.9438,394.7578,1152.9438,398.7578,1142.9438,402.7578,1146.9438,398.7578" style="stroke:#181818;stroke-width:1.0;"/><line style="stroke:#181818;stroke-width:1.0;" x1="611.6855" x2="1148.9438" y1="398.7578" y2="398.7578"/><text fill="#000000" font-family="sans-serif" font-size="13" lengthAdjust="spacing" textLength="142.3525" x="618.6855" y="393.6919">Extract exploit details</text><path d="M537.397,420.7578 L601.8398,420.7578 L601.8398,427.8906 L591.8398,437.8906 L537.397,437.8906 L537.397,420.7578 " fill="#EEEEEE" style="stroke:#000000;stroke-width:1.5;"/><rect fill="none" height="75.3984" style="stroke:#000000;stroke-width:1.5;" width="542.0313" x="537.397" y="420.7578"/><text fill="#000000" font-family="sans-serif" font-size="13" font-weight="bold" lengthAdjust="spacing" textLength="19.4429" x="552.397" y="433.8247">alt</text><text fill="#000000" font-family="sans-serif" font-size="11" font-weight="bold" lengthAdjust="spacing" textLength="107.1748" x="616.8398" y="432.9683">[RLModelBounty]</text><polygon fill="#181818" points="986.8311,455.0234,996.8311,459.0234,986.8311,463.0234,990.8311,459.0234" style="stroke:#181818;stroke-width:1.0;"/><line style="stroke:#181818;stroke-width:1.0;" x1="611.6855" x2="992.8311" y1="459.0234" y2="459.0234"/><text fill="#000000" font-family="sans-serif" font-size="13" lengthAdjust="spacing" textLength="177.4995" x="618.6855" y="453.9575">Run RL Model test (test.py)</text><polygon fill="#181818" points="864.7134,484.1563,874.7134,488.1563,864.7134,492.1563,868.7134,488.1563" style="stroke:#181818;stroke-width:1.0;"/><line style="stroke:#181818;stroke-width:1.0;" x1="611.6855" x2="870.7134" y1="488.1563" y2="488.1563"/><text fill="#000000" font-family="sans-serif" font-size="13" lengthAdjust="spacing" textLength="157.8408" x="618.6855" y="483.0903">Store score from test.py</text><polygon fill="#181818" points="743.5835,520.2891,753.5835,524.2891,743.5835,528.2891,747.5835,524.2891" style="stroke:#181818;stroke-width:1.0;"/><line style="stroke:#181818;stroke-width:1.0;" x1="36.4136" x2="749.5835" y1="524.2891" y2="524.2891"/><text fill="#000000" font-family="sans-serif" font-size="13" lengthAdjust="spacing" textLength="339.0791" x="43.4136" y="519.2231">Request Refund (if no valid submission by deadline)</text><!--SRC=[TP8xKiCm48PxdM8dbLt00Lmmam0P2bDWSm7PKeW6HH9wPCZjMSalEGcDxLr__pv-YVPUMsYDLavRGbFqHljlRecXrejU6AeyR7RXQnUSvnRsLYlF5Ti0TNFm7_n2ZKbW_22CUjfHnpFY6VKMsoPe2Z9mQynE1-Kl2PYZZ6Xg67BmIN4w8RbBR5CFQSocvBhxVKqSQoqYepNmy3GlMy6MiSapTnG62Xm26PINPAAY8cvTGHiZb6GA4lz4ObgvkWAAaf3X7DQTNt-Dr9OFumiSyBRTdll-2Dip5P9sSa6XY7lZc4rTplrdHolu2DnUbi9tsxUXEma_J87llEBzlMUogTyrutAqVJ1h2CexPcHIT89Al-04OE9lZYlwaoe07_ioxj47H-8TZMLMOsIbhczB1KrGc8M4W-SETuZFHuC3BxhClzR7Wt5zV1wiFi68fzxvFLhMRFXFY9KRVWZeN24Ee3ISgHGCNBJQEQ4LT1VSWp8f52__0000]--></g></svg>