<svg xmlns="http://www.w3.org/2000/svg" xmlns:xlink="http://www.w3.org/1999/xlink" contentStyleType="text/css" height="502px" preserveAspectRatio="none" style="width:808px;height:502px;background:#FFFFFF;" version="1.1" viewBox="0 0 808 502" width="808px" zoomAndPan="magnify"><defs/><g><line style="stroke:#181818;stroke-width:0.5;stroke-dasharray:5.0,5.0;" x1="36" x2="36" y1="81.2969" y2="421.7578"/><line style="stroke:#181818;stroke-width:0.5;stroke-dasharray:5.0,5.0;" x1="104.8271" x2="104.8271" y1="81.2969" y2="421.7578"/><line style="stroke:#181818;stroke-width:0.5;stroke-dasharray:5.0,5.0;" x1="239.2207" x2="239.2207" y1="81.2969" y2="421.7578"/><line style="stroke:#181818;stroke-width:0.5;stroke-dasharray:5.0,5.0;" x1="423.8682" x2="423.8682" y1="81.2969" y2="421.7578"/><line style="stroke:#181818;stroke-width:0.5;stroke-dasharray:5.0,5.0;" x1="567.4453" x2="567.4453" y1="81.2969" y2="421.7578"/><line style="stroke:#181818;stroke-width:0.5;stroke-dasharray:5.0,5.0;" x1="688.6641" x2="688.6641" y1="81.2969" y2="421.7578"/><line style="stroke:#181818;stroke-width:0.5;stroke-dasharray:5.0,5.0;" x1="772.7051" x2="772.7051" y1="81.2969" y2="421.7578"/><text fill="#000000" font-family="sans-serif" font-size="14" lengthAdjust="spacing" textLength="56.8271" x="5" y="77.9951">Sponsor</text><ellipse cx="36.4136" cy="13.5" fill="#E2E2F0" rx="8" ry="8" style="stroke:#181818;stroke-width:0.5;"/><path d="M36.4136,21.5 L36.4136,48.5 M23.4136,29.5 L49.4136,29.5 M36.4136,48.5 L23.4136,63.5 M36.4136,48.5 L49.4136,63.5 " fill="none" style="stroke:#181818;stroke-width:0.5;"/><text fill="#000000" font-family="sans-serif" font-size="14" lengthAdjust="spacing" textLength="56.8271" x="5" y="433.7529">Sponsor</text><ellipse cx="36.4136" cy="445.5547" fill="#E2E2F0" rx="8" ry="8" style="stroke:#181818;stroke-width:0.5;"/><path d="M36.4136,453.5547 L36.4136,480.5547 M23.4136,461.5547 L49.4136,461.5547 M36.4136,480.5547 L23.4136,495.5547 M36.4136,480.5547 L49.4136,495.5547 " fill="none" style="stroke:#181818;stroke-width:0.5;"/><text fill="#000000" font-family="sans-serif" font-size="14" lengthAdjust="spacing" textLength="49.2803" x="77.8271" y="77.9951">Hacker</text><ellipse cx="105.4673" cy="13.5" fill="#E2E2F0" rx="8" ry="8" style="stroke:#181818;stroke-width:0.5;"/><path d="M105.4673,21.5 L105.4673,48.5 M92.4673,29.5 L118.4673,29.5 M105.4673,48.5 L92.4673,63.5 M105.4673,48.5 L118.4673,63.5 " fill="none" style="stroke:#181818;stroke-width:0.5;"/><text fill="#000000" font-family="sans-serif" font-size="14" lengthAdjust="spacing" textLength="49.2803" x="77.8271" y="433.7529">Hacker</text><ellipse cx="105.4673" cy="445.5547" fill="#E2E2F0" rx="8" ry="8" style="stroke:#181818;stroke-width:0.5;"/><path d="M105.4673,453.5547 L105.4673,480.5547 M92.4673,461.5547 L118.4673,461.5547 M105.4673,480.5547 L92.4673,495.5547 M105.4673,480.5547 L118.4673,495.5547 " fill="none" style="stroke:#181818;stroke-width:0.5;"/><rect fill="#E2E2F0" height="30.2969" rx="2.5" ry="2.5" style="stroke:#181818;stroke-width:0.5;" width="154.5537" x="162.2207" y="50"/><text fill="#000000" font-family="sans-serif" font-size="14" lengthAdjust="spacing" textLength="140.5537" x="169.2207" y="69.9951">BugBuster Frontend</text><rect fill="#E2E2F0" height="30.2969" rx="2.5" ry="2.5" style="stroke:#181818;stroke-width:0.5;" width="154.5537" x="162.2207" y="420.7578"/><text fill="#000000" font-family="sans-serif" font-size="14" lengthAdjust="spacing" textLength="140.5537" x="169.2207" y="440.7529">BugBuster Frontend</text><rect fill="#E2E2F0" height="30.2969" rx="2.5" ry="2.5" style="stroke:#181818;stroke-width:0.5;" width="128.5771" x="359.8682" y="50"/><text fill="#000000" font-family="sans-serif" font-size="14" lengthAdjust="spacing" textLength="114.5771" x="366.8682" y="69.9951">BugBuster Dapp</text><rect fill="#E2E2F0" height="30.2969" rx="2.5" ry="2.5" style="stroke:#181818;stroke-width:0.5;" width="128.5771" x="359.8682" y="420.7578"/><text fill="#000000" font-family="sans-serif" font-size="14" lengthAdjust="spacing" textLength="114.5771" x="366.8682" y="440.7529">BugBuster Dapp</text><text fill="#000000" font-family="sans-serif" font-size="14" lengthAdjust="spacing" textLength="133.2188" x="498.4453" y="77.9951">BugBusterContract</text><path d="M550.0547,29 C550.0547,19 568.0547,19 568.0547,19 C568.0547,19 586.0547,19 586.0547,29 L586.0547,55 C586.0547,65 568.0547,65 568.0547,65 C568.0547,65 550.0547,65 550.0547,55 L550.0547,29 " fill="#E2E2F0" style="stroke:#181818;stroke-width:1.5;"/><path d="M550.0547,29 C550.0547,39 568.0547,39 568.0547,39 C568.0547,39 586.0547,39 586.0547,29 " fill="none" style="stroke:#181818;stroke-width:1.5;"/><text fill="#000000" font-family="sans-serif" font-size="14" lengthAdjust="spacing" textLength="133.2188" x="498.4453" y="433.7529">BugBusterContract</text><path d="M550.0547,447.0547 C550.0547,437.0547 568.0547,437.0547 568.0547,437.0547 C568.0547,437.0547 586.0547,437.0547 586.0547,447.0547 L586.0547,473.0547 C586.0547,483.0547 568.0547,483.0547 568.0547,483.0547 C568.0547,483.0547 550.0547,483.0547 550.0547,473.0547 L550.0547,447.0547 " fill="#E2E2F0" style="stroke:#181818;stroke-width:1.5;"/><path d="M550.0547,447.0547 C550.0547,457.0547 568.0547,457.0547 568.0547,457.0547 C568.0547,457.0547 586.0547,457.0547 586.0547,447.0547 " fill="none" style="stroke:#181818;stroke-width:1.5;"/><text fill="#000000" font-family="sans-serif" font-size="14" lengthAdjust="spacing" textLength="77.041" x="647.6641" y="77.9951">AppBounty</text><path d="M671.1846,29 C671.1846,19 689.1846,19 689.1846,19 C689.1846,19 707.1846,19 707.1846,29 L707.1846,55 C707.1846,65 689.1846,65 689.1846,65 C689.1846,65 671.1846,65 671.1846,55 L671.1846,29 " fill="#E2E2F0" style="stroke:#181818;stroke-width:1.5;"/><path d="M671.1846,29 C671.1846,39 689.1846,39 689.1846,39 C689.1846,39 707.1846,39 707.1846,29 " fill="none" style="stroke:#181818;stroke-width:1.5;"/><text fill="#000000" font-family="sans-serif" font-size="14" lengthAdjust="spacing" textLength="77.041" x="647.6641" y="433.7529">AppBounty</text><path d="M671.1846,447.0547 C671.1846,437.0547 689.1846,437.0547 689.1846,437.0547 C689.1846,437.0547 707.1846,437.0547 707.1846,447.0547 L707.1846,473.0547 C707.1846,483.0547 689.1846,483.0547 689.1846,483.0547 C689.1846,483.0547 671.1846,483.0547 671.1846,473.0547 L671.1846,447.0547 " fill="#E2E2F0" style="stroke:#181818;stroke-width:1.5;"/><path d="M671.1846,447.0547 C671.1846,457.0547 689.1846,457.0547 689.1846,457.0547 C689.1846,457.0547 707.1846,457.0547 707.1846,447.0547 " fill="none" style="stroke:#181818;stroke-width:1.5;"/><text fill="#000000" font-family="sans-serif" font-size="14" lengthAdjust="spacing" textLength="59.0762" x="740.7051" y="77.9951">Tar Files</text><path d="M755.2432,29 C755.2432,19 773.2432,19 773.2432,19 C773.2432,19 791.2432,19 791.2432,29 L791.2432,55 C791.2432,65 773.2432,65 773.2432,65 C773.2432,65 755.2432,65 755.2432,55 L755.2432,29 " fill="#E2E2F0" style="stroke:#181818;stroke-width:1.5;"/><path d="M755.2432,29 C755.2432,39 773.2432,39 773.2432,39 C773.2432,39 791.2432,39 791.2432,29 " fill="none" style="stroke:#181818;stroke-width:1.5;"/><text fill="#000000" font-family="sans-serif" font-size="14" lengthAdjust="spacing" textLength="59.0762" x="740.7051" y="433.7529">Tar Files</text><path d="M755.2432,447.0547 C755.2432,437.0547 773.2432,437.0547 773.2432,437.0547 C773.2432,437.0547 791.2432,437.0547 791.2432,447.0547 L791.2432,473.0547 C791.2432,483.0547 773.2432,483.0547 773.2432,483.0547 C773.2432,483.0547 755.2432,483.0547 755.2432,473.0547 L755.2432,447.0547 " fill="#E2E2F0" style="stroke:#181818;stroke-width:1.5;"/><path d="M755.2432,447.0547 C755.2432,457.0547 773.2432,457.0547 773.2432,457.0547 C773.2432,457.0547 791.2432,457.0547 791.2432,447.0547 " fill="none" style="stroke:#181818;stroke-width:1.5;"/><polygon fill="#181818" points="227.4976,108.4297,237.4976,112.4297,227.4976,116.4297,231.4976,112.4297" style="stroke:#181818;stroke-width:1.0;"/><line style="stroke:#181818;stroke-width:1.0;" x1="36.4136" x2="233.4976" y1="112.4297" y2="112.4297"/><text fill="#000000" font-family="sans-serif" font-size="13" lengthAdjust="spacing" textLength="109.1733" x="43.4136" y="107.3638">Add Sponsorship</text><polygon fill="#181818" points="412.1567,137.5625,422.1567,141.5625,412.1567,145.5625,416.1567,141.5625" style="stroke:#181818;stroke-width:1.0;"/><line style="stroke:#181818;stroke-width:1.0;" x1="239.4976" x2="418.1567" y1="141.5625" y2="141.5625"/><text fill="#000000" font-family="sans-serif" font-size="13" lengthAdjust="spacing" textLength="141.9146" x="246.4976" y="136.4966">Send AddSponsorship</text><polygon fill="#181818" points="556.0547,166.6953,566.0547,170.6953,556.0547,174.6953,560.0547,170.6953" style="stroke:#181818;stroke-width:1.0;"/><line style="stroke:#181818;stroke-width:1.0;" x1="424.1567" x2="562.0547" y1="170.6953" y2="170.6953"/><text fill="#000000" font-family="sans-serif" font-size="13" lengthAdjust="spacing" textLength="115.1846" x="431.1567" y="165.6294">AddSponsorship()</text><polygon fill="#181818" points="227.4976,195.8281,237.4976,199.8281,227.4976,203.8281,231.4976,199.8281" style="stroke:#181818;stroke-width:1.0;"/><line style="stroke:#181818;stroke-width:1.0;" x1="105.4673" x2="233.4976" y1="199.8281" y2="199.8281"/><text fill="#000000" font-family="sans-serif" font-size="13" lengthAdjust="spacing" textLength="110.0303" x="112.4673" y="194.7622">Explore Bounties</text><polygon fill="#181818" points="412.1567,224.9609,422.1567,228.9609,412.1567,232.9609,416.1567,228.9609" style="stroke:#181818;stroke-width:1.0;"/><line style="stroke:#181818;stroke-width:1.0;" x1="239.4976" x2="418.1567" y1="228.9609" y2="228.9609"/><text fill="#000000" font-family="sans-serif" font-size="13" lengthAdjust="spacing" textLength="160.6592" x="246.4976" y="223.895">Fetch Available Bounties</text><polygon fill="#181818" points="677.1846,254.0938,687.1846,258.0938,677.1846,262.0938,681.1846,258.0938" style="stroke:#181818;stroke-width:1.0;"/><line style="stroke:#181818;stroke-width:1.0;" x1="424.1567" x2="683.1846" y1="258.0938" y2="258.0938"/><text fill="#000000" font-family="sans-serif" font-size="13" lengthAdjust="spacing" textLength="100.4707" x="431.1567" y="253.0278">Query Bounties</text><polygon fill="#181818" points="227.4976,283.2266,237.4976,287.2266,227.4976,291.2266,231.4976,287.2266" style="stroke:#181818;stroke-width:1.0;"/><line style="stroke:#181818;stroke-width:1.0;" x1="105.4673" x2="233.4976" y1="287.2266" y2="287.2266"/><text fill="#000000" font-family="sans-serif" font-size="13" lengthAdjust="spacing" textLength="94.6816" x="112.4673" y="282.1606">Submit Exploit</text><polygon fill="#181818" points="412.1567,312.3594,422.1567,316.3594,412.1567,320.3594,416.1567,316.3594" style="stroke:#181818;stroke-width:1.0;"/><line style="stroke:#181818;stroke-width:1.0;" x1="239.4976" x2="418.1567" y1="316.3594" y2="316.3594"/><text fill="#000000" font-family="sans-serif" font-size="13" lengthAdjust="spacing" textLength="81.3071" x="246.4976" y="311.2935">Send Exploit</text><polygon fill="#181818" points="556.0547,341.4922,566.0547,345.4922,556.0547,349.4922,560.0547,345.4922" style="stroke:#181818;stroke-width:1.0;"/><line style="stroke:#181818;stroke-width:1.0;" x1="424.1567" x2="562.0547" y1="345.4922" y2="345.4922"/><text fill="#000000" font-family="sans-serif" font-size="13" lengthAdjust="spacing" textLength="87.3184" x="431.1567" y="340.4263">SendExploit()</text><polygon fill="#181818" points="761.2432,370.625,771.2432,374.625,761.2432,378.625,765.2432,374.625" style="stroke:#181818;stroke-width:1.0;"/><line style="stroke:#181818;stroke-width:1.0;" x1="424.1567" x2="767.2432" y1="374.625" y2="374.625"/><text fill="#000000" font-family="sans-serif" font-size="13" lengthAdjust="spacing" textLength="142.3525" x="431.1567" y="369.5591">Extract exploit details</text><polygon fill="#181818" points="556.0547,399.7578,566.0547,403.7578,556.0547,407.7578,560.0547,403.7578" style="stroke:#181818;stroke-width:1.0;"/><line style="stroke:#181818;stroke-width:1.0;" x1="36.4136" x2="562.0547" y1="403.7578" y2="403.7578"/><text fill="#000000" font-family="sans-serif" font-size="13" lengthAdjust="spacing" textLength="195" x="43.4136" y="398.6919">Request Refund (if no exploit)</text><!--SRC=[TP31RiCW44JlVCKgf-JG7_2XajqswhLrVc1jDWsg2nIMgFdx0WuEQPgJ6St3CmEER1pqrcXldC2iNd7y92SiEbQZigWPLbtuw89dSh1rHZDfkGBqYxW7FwEr6Km78P5nG4yLyHJlknYReI8giBMsCq7pAGEBgeWTnavg8f-9gB8Guhm97XwNbWsqKfQn_g2iA4wYKiK6-gGYLbF9IKJfr_m1rXiXvaUxJdlviPDn1BcpYgLkuxR4um7Q8we9Xwb2I-OokO6tGEvq8VwDxCFmfNXELdnlNx5lXoNxxCPLnI-lcYPb46XcG1B7wjVFVVdREtq7yXo_-n1ZrseFsfIxcry0]--></g></svg>